<svg xmlns="http://www.w3.org/2000/svg" width="1440" height="900"><path d="M737,488L654,520L741,531Z" fill="#7b424c" stroke="#7b424c" stroke-width="1.51"/><path d="M737,488L631,425L654,520Z" fill="#80454f" stroke="#80454f" stroke-width="1.51"/><path d="M631,425L556,490L654,520Z" fill="#83474f" stroke="#83474f" stroke-width="1.51"/><path d="M737,488L682,340L631,425Z" fill="#854850" stroke="#854850" stroke-width="1.51"/><path d="M631,425L536,289L556,490Z" fill="#8b4d52" stroke="#8b4d52" stroke-width="1.51"/><path d="M741,531L883,525L737,488Z" fill="#783f4b" stroke="#783f4b" stroke-width="1.51"/><path d="M737,488L785,303L682,340Z" fill="#854951" stroke="#854951" stroke-width="1.51"/><path d="M649,707L776,682L741,531Z" fill="#713a48" stroke="#713a48" stroke-width="1.51"/><path d="M741,531L776,682L883,525Z" fill="#723b48" stroke="#723b48" stroke-width="1.51"/><path d="M649,707L741,531L654,520Z" fill="#773f4b" stroke="#773f4b" stroke-width="1.51"/><path d="M883,525L893,495L737,488Z" fill="#763e4b" stroke="#763e4b" stroke-width="1.51"/><path d="M514,610L649,707L654,520Z" fill="#79404b" stroke="#79404b" stroke-width="1.51"/><path d="M556,490L514,610L654,520Z" fill="#80454e" stroke="#80454e" stroke-width="1.51"/><path d="M556,490L473,528L514,610Z" fill="#83484f" stroke="#83484f" stroke-width="1.51"/><path d="M428,432L473,528L556,490Z" fill="#894c52" stroke="#894c52" stroke-width="1.51"/><path d="M858,332L785,303L737,488Z" fill="#82474f" stroke="#82474f" stroke-width="1.51"/><path d="M514,610L577,717L649,707Z" fill="#753e4a" stroke="#753e4a" stroke-width="1.51"/><path d="M893,495L858,332L737,488Z" fill="#7c424c" stroke="#7c424c" stroke-width="1.51"/><path d="M682,340L536,289L631,425Z" fill="#8d4f53" stroke="#8d4f53" stroke-width="1.51"/><path d="M525,273L536,289L626,177Z" fill="#985758" stroke="#985758" stroke-width="1.51"/><path d="M536,289L428,432L556,490Z" fill="#8e5054" stroke="#8e5054" stroke-width="1.51"/><path d="M514,610L463,674L577,717Z" fill="#79404b" stroke="#79404b" stroke-width="1.51"/><path d="M473,528L463,674L514,610Z" fill="#80454e" stroke="#80454e" stroke-width="1.51"/><path d="M350,600L463,674L473,528Z" fill="#83474f" stroke="#83474f" stroke-width="1.51"/><path d="M577,717L652,796L649,707Z" fill="#6e3847" stroke="#6e3847" stroke-width="1.51"/><path d="M649,707L652,796L776,682Z" fill="#6c3646" stroke="#6c3646" stroke-width="1.51"/><path d="M535,774L652,796L577,717Z" fill="#6e3847" stroke="#6e3847" stroke-width="1.51"/><path d="M776,682L933,685L883,525Z" fill="#6b3646" stroke="#6b3646" stroke-width="1.51"/><path d="M883,525L1016,615L893,495Z" fill="#6f3847" stroke="#6f3847" stroke-width="1.51"/><path d="M864,820L933,685L776,682Z" fill="#643143" stroke="#643143" stroke-width="1.51"/><path d="M536,289L418,331L428,432Z" fill="#955557" stroke="#955557" stroke-width="1.51"/><path d="M626,177L536,289L682,340Z" fill="#945456" stroke="#945456" stroke-width="1.51"/><path d="M463,674L535,774L577,717Z" fill="#743d49" stroke="#743d49" stroke-width="1.51"/><path d="M652,796L797,811L776,682Z" fill="#673344" stroke="#673344" stroke-width="1.51"/><path d="M785,303L626,177L682,340Z" fill="#8f5054" stroke="#8f5054" stroke-width="1.51"/><path d="M871,208L804,211L785,303Z" fill="#8c4e53" stroke="#8c4e53" stroke-width="1.51"/><path d="M933,685L1016,615L883,525Z" fill="#693445" stroke="#693445" stroke-width="1.51"/><path d="M893,495L1110,383L858,332Z" fill="#79404b" stroke="#79404b" stroke-width="1.51"/><path d="M858,332L871,208L785,303Z" fill="#884b51" stroke="#884b51" stroke-width="1.51"/><path d="M1079,607L1016,615L1040,715Z" fill="#612e41" stroke="#612e41" stroke-width="1.51"/><path d="M525,273L418,331L536,289Z" fill="#975657" stroke="#975657" stroke-width="1.51"/><path d="M353,191L345,342L418,331Z" fill="#9e5c5b" stroke="#9e5c5b" stroke-width="1.51"/><path d="M804,211L626,177L785,303Z" fill="#905155" stroke="#905155" stroke-width="1.51"/><path d="M797,811L864,820L776,682Z" fill="#633042" stroke="#633042" stroke-width="1.51"/><path d="M791,955L864,820L797,811Z" fill="#5c2b3f" stroke="#5c2b3f" stroke-width="1.51"/><path d="M804,211L746,119L626,177Z" fill="#965657" stroke="#965657" stroke-width="1.51"/><path d="M983,197L871,208L858,332Z" fill="#884b51" stroke="#884b51" stroke-width="1.51"/><path d="M535,774L630,863L652,796Z" fill="#6a3545" stroke="#6a3545" stroke-width="1.51"/><path d="M652,796L630,863L797,811Z" fill="#653143" stroke="#653143" stroke-width="1.51"/><path d="M341,469L350,600L473,528Z" fill="#8a4d52" stroke="#8a4d52" stroke-width="1.51"/><path d="M463,674L473,822L535,774Z" fill="#743c49" stroke="#743c49" stroke-width="1.51"/><path d="M341,469L473,528L428,432Z" fill="#8d4f54" stroke="#8d4f54" stroke-width="1.51"/><path d="M345,342L341,469L428,432Z" fill="#945456" stroke="#945456" stroke-width="1.51"/><path d="M1016,615L1060,496L893,495Z" fill="#6c3747" stroke="#6c3747" stroke-width="1.51"/><path d="M350,600L358,653L463,674Z" fill="#81464e" stroke="#81464e" stroke-width="1.51"/><path d="M535,774L582,911L630,863Z" fill="#683344" stroke="#683344" stroke-width="1.51"/><path d="M358,653L473,822L463,674Z" fill="#7a414c" stroke="#7a414c" stroke-width="1.51"/><path d="M1016,615L1079,607L1060,496Z" fill="#673244" stroke="#673244" stroke-width="1.51"/><path d="M1040,715L1016,615L933,685Z" fill="#622f42" stroke="#622f42" stroke-width="1.51"/><path d="M418,331L345,342L428,432Z" fill="#965657" stroke="#965657" stroke-width="1.51"/><path d="M466,165L418,331L525,273Z" fill="#9c5a59" stroke="#9c5a59" stroke-width="1.51"/><path d="M1008,807L1040,715L933,685Z" fill="#5d2b3f" stroke="#5d2b3f" stroke-width="1.51"/><path d="M871,208L746,119L804,211Z" fill="#915255" stroke="#915255" stroke-width="1.51"/><path d="M473,822L582,911L535,774Z" fill="#6c3646" stroke="#6c3646" stroke-width="1.51"/><path d="M630,863L791,955L797,811Z" fill="#5e2c40" stroke="#5e2c40" stroke-width="1.51"/><path d="M495,143L466,165L525,273Z" fill="#9f5d5b" stroke="#9f5d5b" stroke-width="1.51"/><path d="M495,143L525,273L626,177Z" fill="#9c5a59" stroke="#9c5a59" stroke-width="1.51"/><path d="M583,23L495,143L626,177Z" fill="#a25f5c" stroke="#a25f5c" stroke-width="1.51"/><path d="M1064,290L983,197L858,332Z" fill="#82474f" stroke="#82474f" stroke-width="1.51"/><path d="M871,208L919,80L746,119Z" fill="#935355" stroke="#935355" stroke-width="1.51"/><path d="M1201,619L1174,458L1079,607Z" fill="#633042" stroke="#633042" stroke-width="1.51"/><path d="M864,820L1008,807L933,685Z" fill="#5e2c40" stroke="#5e2c40" stroke-width="1.51"/><path d="M940,907L1008,807L864,820Z" fill="#58283d" stroke="#58283d" stroke-width="1.51"/><path d="M1110,383L893,495L1060,496Z" fill="#713a48" stroke="#713a48" stroke-width="1.51"/><path d="M1110,383L1064,290L858,332Z" fill="#7b424c" stroke="#7b424c" stroke-width="1.51"/><path d="M1174,458L1110,383L1060,496Z" fill="#6e3847" stroke="#6e3847" stroke-width="1.51"/><path d="M350,600L205,721L358,653Z" fill="#844850" stroke="#844850" stroke-width="1.51"/><path d="M455,941L582,911L473,822Z" fill="#693445" stroke="#693445" stroke-width="1.51"/><path d="M341,469L250,519L350,600Z" fill="#8e5053" stroke="#8e5053" stroke-width="1.51"/><path d="M155,446L250,519L341,469Z" fill="#955557" stroke="#955557" stroke-width="1.51"/><path d="M728,1014L791,955L630,863Z" fill="#5e2c40" stroke="#5e2c40" stroke-width="1.51"/><path d="M791,955L940,907L864,820Z" fill="#58283d" stroke="#58283d" stroke-width="1.51"/><path d="M1064,290L1079,240L983,197Z" fill="#80464e" stroke="#80464e" stroke-width="1.51"/><path d="M1222,330L1079,240L1064,290Z" fill="#79404b" stroke="#79404b" stroke-width="1.51"/><path d="M746,119L635,47L626,177Z" fill="#9d5b5a" stroke="#9d5b5a" stroke-width="1.51"/><path d="M722,-18L635,47L746,119Z" fill="#a15e5b" stroke="#a15e5b" stroke-width="1.51"/><path d="M345,342L237,313L341,469Z" fill="#9a5959" stroke="#9a5959" stroke-width="1.51"/><path d="M466,165L353,191L418,331Z" fill="#a15e5c" stroke="#a15e5c" stroke-width="1.51"/><path d="M397,84L353,191L466,165Z" fill="#a8635e" stroke="#a8635e" stroke-width="1.51"/><path d="M397,84L466,165L495,143Z" fill="#a7625e" stroke="#a7625e" stroke-width="1.51"/><path d="M1110,383L1222,330L1064,290Z" fill="#753e4a" stroke="#753e4a" stroke-width="1.51"/><path d="M1079,607L1174,458L1060,496Z" fill="#683344" stroke="#683344" stroke-width="1.51"/><path d="M1150,713L1079,607L1040,715Z" fill="#5d2c40" stroke="#5d2c40" stroke-width="1.51"/><path d="M983,197L919,80L871,208Z" fill="#8d4f53" stroke="#8d4f53" stroke-width="1.51"/><path d="M977,53L919,80L983,197Z" fill="#8f5054" stroke="#8f5054" stroke-width="1.51"/><path d="M582,911L728,1014L630,863Z" fill="#612f41" stroke="#612f41" stroke-width="1.51"/><path d="M455,941L543,974L582,911Z" fill="#673344" stroke="#673344" stroke-width="1.51"/><path d="M455,941L473,822L350,900Z" fill="#6d3746" stroke="#6d3746" stroke-width="1.51"/><path d="M336,852L473,822L358,653Z" fill="#773f4a" stroke="#773f4a" stroke-width="1.51"/><path d="M1142,745L1150,713L1040,715Z" fill="#59283e" stroke="#59283e" stroke-width="1.51"/><path d="M1142,745L1040,715L1008,807Z" fill="#58283e" stroke="#58283e" stroke-width="1.51"/><path d="M254,818L336,852L358,653Z" fill="#7a414c" stroke="#7a414c" stroke-width="1.51"/><path d="M1087,888L1142,745L1008,807Z" fill="#54243b" stroke="#54243b" stroke-width="1.51"/><path d="M543,974L728,1014L582,911Z" fill="#633042" stroke="#633042" stroke-width="1.51"/><path d="M925,1053L995,956L940,907Z" fill="#53243b" stroke="#53243b" stroke-width="1.51"/><path d="M353,191L237,313L345,342Z" fill="#a25e5c" stroke="#a25e5c" stroke-width="1.51"/><path d="M635,47L583,23L626,177Z" fill="#a35f5c" stroke="#a35f5c" stroke-width="1.51"/><path d="M619,-48L583,23L635,47Z" fill="#a9645f" stroke="#a9645f" stroke-width="1.51"/><path d="M1225,644L1201,619L1150,713Z" fill="#5a293f" stroke="#5a293f" stroke-width="1.51"/><path d="M1150,713L1201,619L1079,607Z" fill="#5d2b40" stroke="#5d2b40" stroke-width="1.51"/><path d="M336,852L350,900L473,822Z" fill="#713a48" stroke="#713a48" stroke-width="1.51"/><path d="M453,-13L397,84L495,143Z" fill="#ac665f" stroke="#ac665f" stroke-width="1.51"/><path d="M353,191L181,208L237,313Z" fill="#a8635e" stroke="#a8635e" stroke-width="1.51"/><path d="M919,80L722,-18L746,119Z" fill="#9b5959" stroke="#9b5959" stroke-width="1.51"/><path d="M940,907L995,956L1008,807Z" fill="#52243b" stroke="#52243b" stroke-width="1.51"/><path d="M925,1053L940,907L791,955Z" fill="#56273d" stroke="#56273d" stroke-width="1.51"/><path d="M336,852L216,873L350,900Z" fill="#743c49" stroke="#743c49" stroke-width="1.51"/><path d="M250,519L205,721L350,600Z" fill="#894c52" stroke="#894c52" stroke-width="1.51"/><path d="M109,610L205,721L250,519Z" fill="#8e4f53" stroke="#8e4f53" stroke-width="1.51"/><path d="M919,80L925,-5L722,-18Z" fill="#9c5a59" stroke="#9c5a59" stroke-width="1.51"/><path d="M1160,56L977,53L983,197Z" fill="#8c4e53" stroke="#8c4e53" stroke-width="1.51"/><path d="M205,721L254,818L358,653Z" fill="#80454e" stroke="#80454e" stroke-width="1.51"/><path d="M1296,675L1225,644L1150,713Z" fill="#57273d" stroke="#57273d" stroke-width="1.51"/><path d="M995,956L1087,888L1008,807Z" fill="#51223a" stroke="#51223a" stroke-width="1.51"/><path d="M1201,619L1289,437L1174,458Z" fill="#643043" stroke="#643043" stroke-width="1.51"/><path d="M1215,834L1150,713L1142,745Z" fill="#53243c" stroke="#53243c" stroke-width="1.51"/><path d="M728,1014L925,1053L791,955Z" fill="#59293e" stroke="#59293e" stroke-width="1.51"/><path d="M543,974L718,1061L728,1014Z" fill="#612e41" stroke="#612e41" stroke-width="1.51"/><path d="M488,1026L718,1061L543,974Z" fill="#643143" stroke="#643143" stroke-width="1.51"/><path d="M488,1026L543,974L455,941Z" fill="#683444" stroke="#683444" stroke-width="1.51"/><path d="M237,313L155,446L341,469Z" fill="#9b5959" stroke="#9b5959" stroke-width="1.51"/><path d="M1174,458L1222,330L1110,383Z" fill="#703947" stroke="#703947" stroke-width="1.51"/><path d="M1079,240L1160,56L983,197Z" fill="#854950" stroke="#854950" stroke-width="1.51"/><path d="M1289,437L1222,330L1174,458Z" fill="#6b3645" stroke="#6b3645" stroke-width="1.51"/><path d="M339,1014L488,1026L455,941Z" fill="#6c3646" stroke="#6c3646" stroke-width="1.51"/><path d="M339,1014L455,941L350,900Z" fill="#6e3847" stroke="#6e3847" stroke-width="1.51"/><path d="M977,53L925,-5L919,80Z" fill="#965657" stroke="#965657" stroke-width="1.51"/><path d="M722,-18L619,-48L635,47Z" fill="#a7635e" stroke="#a7635e" stroke-width="1.51"/><path d="M583,23L453,-13L495,143Z" fill="#ab655f" stroke="#ab655f" stroke-width="1.51"/><path d="M552,-99L619,-48L651,-136Z" fill="#aa655f" stroke="#aa655f" stroke-width="1.51"/><path d="M155,446L109,610L250,519Z" fill="#955557" stroke="#955557" stroke-width="1.51"/><path d="M237,313L142,398L155,446Z" fill="#a05d5b" stroke="#a05d5b" stroke-width="1.51"/><path d="M62,295L142,398L237,313Z" fill="#a6615d" stroke="#a6615d" stroke-width="1.51"/><path d="M397,84L350,48L353,191Z" fill="#ad6760" stroke="#ad6760" stroke-width="1.51"/><path d="M552,-99L453,-13L583,23Z" fill="#ae6760" stroke="#ae6760" stroke-width="1.51"/><path d="M453,-13L350,48L397,84Z" fill="#b16a61" stroke="#b16a61" stroke-width="1.51"/><path d="M995,956L1126,978L1087,888Z" fill="#4e2039" stroke="#4e2039" stroke-width="1.51"/><path d="M718,1061L925,1053L728,1014Z" fill="#5a293f" stroke="#5a293f" stroke-width="1.51"/><path d="M1330,603L1289,437L1201,619Z" fill="#5e2c40" stroke="#5e2c40" stroke-width="1.51"/><path d="M28,531L109,610L155,446Z" fill="#995758" stroke="#995758" stroke-width="1.51"/><path d="M205,721L216,873L254,818Z" fill="#7d434d" stroke="#7d434d" stroke-width="1.51"/><path d="M222,129L181,208L353,191Z" fill="#ad6760" stroke="#ad6760" stroke-width="1.51"/><path d="M254,818L216,873L336,852Z" fill="#773f4a" stroke="#773f4a" stroke-width="1.51"/><path d="M70,831L216,873L205,721Z" fill="#7f454e" stroke="#7f454e" stroke-width="1.51"/><path d="M1087,888L1215,834L1142,745Z" fill="#50213a" stroke="#50213a" stroke-width="1.51"/><path d="M1225,644L1330,603L1201,619Z" fill="#5a293e" stroke="#5a293e" stroke-width="1.51"/><path d="M1126,978L1215,834L1087,888Z" fill="#4a1e38" stroke="#4a1e38" stroke-width="1.51"/><path d="M350,48L222,129L353,191Z" fill="#af6861" stroke="#af6861" stroke-width="1.51"/><path d="M488,1026L214,1032L718,1061Z" fill="#6a3545" stroke="#6a3545" stroke-width="1.51"/><path d="M216,873L339,1014L350,900Z" fill="#723b48" stroke="#723b48" stroke-width="1.51"/><path d="M1215,834L1296,675L1150,713Z" fill="#52243c" stroke="#52243c" stroke-width="1.51"/><path d="M1289,437L1301,361L1222,330Z" fill="#6b3646" stroke="#6b3646" stroke-width="1.51"/><path d="M1222,330L1288,255L1079,240Z" fill="#773e4a" stroke="#773e4a" stroke-width="1.51"/><path d="M977,53L1024,-51L925,-5Z" fill="#975657" stroke="#975657" stroke-width="1.51"/><path d="M1402,411L1301,361L1289,437Z" fill="#673243" stroke="#673243" stroke-width="1.51"/><path d="M453,-13L344,-28L350,48Z" fill="#b56d63" stroke="#b56d63" stroke-width="1.51"/><path d="M350,48L183,43L222,129Z" fill="#b66d64" stroke="#b66d64" stroke-width="1.51"/><path d="M619,-48L552,-99L583,23Z" fill="#ab655f" stroke="#ab655f" stroke-width="1.51"/><path d="M651,-136L619,-48L722,-18Z" fill="#a7625e" stroke="#a7625e" stroke-width="1.51"/><path d="M1055,1049L1126,978L995,956Z" fill="#4e2139" stroke="#4e2139" stroke-width="1.51"/><path d="M1296,675L1330,603L1225,644Z" fill="#57273d" stroke="#57273d" stroke-width="1.51"/><path d="M1301,361L1288,255L1222,330Z" fill="#703948" stroke="#703948" stroke-width="1.51"/><path d="M925,1053L1055,1049L995,956Z" fill="#51233b" stroke="#51233b" stroke-width="1.51"/><path d="M1225,1072L1055,1049L925,1053Z" fill="#4e2039" stroke="#4e2039" stroke-width="1.51"/><path d="M222,129L143,184L181,208Z" fill="#b16a62" stroke="#b16a62" stroke-width="1.51"/><path d="M181,208L62,295L237,313Z" fill="#aa645f" stroke="#aa645f" stroke-width="1.51"/><path d="M-67,677L68,714L109,610Z" fill="#915255" stroke="#915255" stroke-width="1.51"/><path d="M291,-109L344,-28L376,-166Z" fill="#b76f64" stroke="#b76f64" stroke-width="1.51"/><path d="M222,129L124,64L143,184Z" fill="#b66d64" stroke="#b66d64" stroke-width="1.51"/><path d="M1260,109L1160,56L1079,240Z" fill="#83474f" stroke="#83474f" stroke-width="1.51"/><path d="M813,-150L651,-136L722,-18Z" fill="#a3605c" stroke="#a3605c" stroke-width="1.51"/><path d="M376,-166L344,-28L453,-13Z" fill="#b56d63" stroke="#b56d63" stroke-width="1.51"/><path d="M813,-150L722,-18L925,-5Z" fill="#9f5c5a" stroke="#9f5c5a" stroke-width="1.51"/><path d="M1144,-23L1024,-51L977,53Z" fill="#945456" stroke="#945456" stroke-width="1.51"/><path d="M109,610L68,714L205,721Z" fill="#8b4d53" stroke="#8b4d53" stroke-width="1.51"/><path d="M216,873L214,1032L339,1014Z" fill="#743c49" stroke="#743c49" stroke-width="1.51"/><path d="M28,531L155,446L142,398Z" fill="#9e5b5a" stroke="#9e5b5a" stroke-width="1.51"/><path d="M1024,-51L928,-112L925,-5Z" fill="#985758" stroke="#985758" stroke-width="1.51"/><path d="M14,358L28,531L142,398Z" fill="#a35f5c" stroke="#a35f5c" stroke-width="1.51"/><path d="M928,-112L813,-150L925,-5Z" fill="#9c5a59" stroke="#9c5a59" stroke-width="1.51"/><path d="M143,184L62,295L181,208Z" fill="#af6961" stroke="#af6961" stroke-width="1.51"/><path d="M1160,56L1144,-23L977,53Z" fill="#8f5054" stroke="#8f5054" stroke-width="1.51"/><path d="M1288,255L1260,109L1079,240Z" fill="#7c424c" stroke="#7c424c" stroke-width="1.51"/><path d="M1250,30L1144,-23L1160,56Z" fill="#8b4d53" stroke="#8b4d53" stroke-width="1.51"/><path d="M1024,-51L1032,-129L928,-112Z" fill="#965657" stroke="#965657" stroke-width="1.51"/><path d="M143,184L8,101L62,295Z" fill="#b56d63" stroke="#b56d63" stroke-width="1.51"/><path d="M344,-28L183,43L350,48Z" fill="#b86f64" stroke="#b86f64" stroke-width="1.51"/><path d="M62,295L14,358L142,398Z" fill="#a8635e" stroke="#a8635e" stroke-width="1.51"/><path d="M-57,235L14,358L62,295Z" fill="#b06961" stroke="#b06961" stroke-width="1.51"/><path d="M-16,834L70,831L68,714Z" fill="#874a51" stroke="#874a51" stroke-width="1.51"/><path d="M68,714L70,831L205,721Z" fill="#864a50" stroke="#864a50" stroke-width="1.51"/><path d="M131,978L214,1032L216,873Z" fill="#773f4a" stroke="#773f4a" stroke-width="1.51"/><path d="M339,1014L214,1032L488,1026Z" fill="#6f3947" stroke="#6f3947" stroke-width="1.51"/><path d="M1301,361L1453,302L1288,255Z" fill="#6d3746" stroke="#6d3746" stroke-width="1.51"/><path d="M1288,255L1337,175L1260,109Z" fill="#79414b" stroke="#79414b" stroke-width="1.51"/><path d="M1330,603L1402,411L1289,437Z" fill="#602e41" stroke="#602e41" stroke-width="1.51"/><path d="M1126,978L1285,918L1215,834Z" fill="#471b36" stroke="#471b36" stroke-width="1.51"/><path d="M1215,834L1363,797L1296,675Z" fill="#4d2039" stroke="#4d2039" stroke-width="1.51"/><path d="M1296,675L1438,731L1330,603Z" fill="#52233a" stroke="#52233a" stroke-width="1.51"/><path d="M1330,603L1452,563L1402,411Z" fill="#5b2a3f" stroke="#5b2a3f" stroke-width="1.51"/><path d="M1225,1072L1285,918L1126,978Z" fill="#471b36" stroke="#471b36" stroke-width="1.51"/><path d="M928,-112L1032,-129L813,-150Z" fill="#9a5858" stroke="#9a5858" stroke-width="1.51"/><path d="M1144,-23L1103,-78L1024,-51Z" fill="#915255" stroke="#915255" stroke-width="1.51"/><path d="M1281,-69L1103,-78L1144,-23Z" fill="#8d4f53" stroke="#8d4f53" stroke-width="1.51"/><path d="M70,831L71,858L216,873Z" fill="#7e444d" stroke="#7e444d" stroke-width="1.51"/><path d="M-16,834L71,858L70,831Z" fill="#83474f" stroke="#83474f" stroke-width="1.51"/><path d="M1285,918L1363,797L1215,834Z" fill="#471b36" stroke="#471b36" stroke-width="1.51"/><path d="M1260,109L1250,30L1160,56Z" fill="#864950" stroke="#864950" stroke-width="1.51"/><path d="M1453,302L1337,175L1288,255Z" fill="#713a48" stroke="#713a48" stroke-width="1.51"/><path d="M1103,-78L1032,-129L1024,-51Z" fill="#935456" stroke="#935456" stroke-width="1.51"/><path d="M183,43L124,64L222,129Z" fill="#b97065" stroke="#b97065" stroke-width="1.51"/><path d="M52,-44L124,64L183,43Z" fill="#c17668" stroke="#c17668" stroke-width="1.51"/><path d="M1343,96L1250,30L1260,109Z" fill="#82464f" stroke="#82464f" stroke-width="1.51"/><path d="M71,858L131,978L216,873Z" fill="#7a404b" stroke="#7a404b" stroke-width="1.51"/><path d="M344,-28L291,-109L183,43Z" fill="#bb7165" stroke="#bb7165" stroke-width="1.51"/><path d="M376,-166L453,-13L552,-99Z" fill="#b16a62" stroke="#b16a62" stroke-width="1.51"/><path d="M376,-166L552,-99L651,-136Z" fill="#ae6860" stroke="#ae6860" stroke-width="1.51"/><path d="M813,-150L376,-166L651,-136Z" fill="#aa645f" stroke="#aa645f" stroke-width="1.51"/><path d="M1438,731L1452,563L1330,603Z" fill="#52233b" stroke="#52233b" stroke-width="1.51"/><path d="M1456,109L1343,96L1337,175Z" fill="#7a404b" stroke="#7a404b" stroke-width="1.51"/><path d="M14,358L-58,481L28,531Z" fill="#a3605c" stroke="#a3605c" stroke-width="1.51"/><path d="M28,531L-67,677L109,610Z" fill="#965657" stroke="#965657" stroke-width="1.51"/><path d="M-132,361L-58,481L14,358Z" fill="#a8635e" stroke="#a8635e" stroke-width="1.51"/><path d="M1337,175L1343,96L1260,109Z" fill="#7c424d" stroke="#7c424d" stroke-width="1.51"/><path d="M1250,30L1281,-69L1144,-23Z" fill="#8b4d52" stroke="#8b4d52" stroke-width="1.51"/><path d="M1453,302L1301,361L1402,411Z" fill="#683344" stroke="#683344" stroke-width="1.51"/><path d="M718,1061L1225,1072L925,1053Z" fill="#53243b" stroke="#53243b" stroke-width="1.51"/><path d="M1055,1049L1225,1072L1126,978Z" fill="#4b1e38" stroke="#4b1e38" stroke-width="1.51"/><path d="M1523,811L1438,731L1363,797Z" fill="#451a36" stroke="#451a36" stroke-width="1.51"/><path d="M1378,956L1363,797L1285,918Z" fill="#421735" stroke="#421735" stroke-width="1.51"/><path d="M1363,797L1438,731L1296,675Z" fill="#4c1f39" stroke="#4c1f39" stroke-width="1.51"/><path d="M1532,479L1453,302L1402,411Z" fill="#622f42" stroke="#622f42" stroke-width="1.51"/><path d="M-98,603L-67,677L28,531Z" fill="#985758" stroke="#985758" stroke-width="1.51"/><path d="M71,858L-32,1007L131,978Z" fill="#7d444d" stroke="#7d444d" stroke-width="1.51"/><path d="M-98,746L-16,834L68,714Z" fill="#8b4d52" stroke="#8b4d52" stroke-width="1.51"/><path d="M-98,746L-38,855L-16,834Z" fill="#874a51" stroke="#874a51" stroke-width="1.51"/><path d="M-58,481L-98,603L28,531Z" fill="#9d5b5a" stroke="#9d5b5a" stroke-width="1.51"/><path d="M124,64L8,101L143,184Z" fill="#ba7166" stroke="#ba7166" stroke-width="1.51"/><path d="M-58,481L-168,441L-98,603Z" fill="#9f5d5b" stroke="#9f5d5b" stroke-width="1.51"/><path d="M52,-44L8,101L124,64Z" fill="#c37768" stroke="#c37768" stroke-width="1.51"/><path d="M1225,1072L1303,1046L1285,918Z" fill="#441935" stroke="#441935" stroke-width="1.51"/><path d="M8,101L-57,235L62,295Z" fill="#b76f64" stroke="#b76f64" stroke-width="1.51"/><path d="M1303,1046L1378,956L1285,918Z" fill="#421834" stroke="#421834" stroke-width="1.51"/><path d="M-16,834L-38,855L71,858Z" fill="#844850" stroke="#844850" stroke-width="1.51"/><path d="M-98,746L68,714L-67,677Z" fill="#8f5054" stroke="#8f5054" stroke-width="1.51"/><path d="M1406,-36L1281,-69L1250,30Z" fill="#874a51" stroke="#874a51" stroke-width="1.51"/><path d="M1103,-78L1386,-167L1032,-129Z" fill="#8d4f53" stroke="#8d4f53" stroke-width="1.51"/><path d="M1406,-36L1250,30L1343,96Z" fill="#83474f" stroke="#83474f" stroke-width="1.51"/><path d="M1532,479L1525,485L1619,552Z" fill="#5a293e" stroke="#5a293e" stroke-width="1.51"/><path d="M1619,552L1525,485L1452,563Z" fill="#58283d" stroke="#58283d" stroke-width="1.51"/><path d="M1452,563L1525,485L1402,411Z" fill="#5b2a3f" stroke="#5b2a3f" stroke-width="1.51"/><path d="M-142,674L-98,746L-67,677Z" fill="#905155" stroke="#905155" stroke-width="1.51"/><path d="M1525,485L1532,479L1402,411Z" fill="#5d2b40" stroke="#5d2b40" stroke-width="1.51"/><path d="M1572,730L1452,563L1438,731Z" fill="#4d2039" stroke="#4d2039" stroke-width="1.51"/><path d="M1534,281L1496,260L1453,302Z" fill="#6b3545" stroke="#6b3545" stroke-width="1.51"/><path d="M1453,302L1496,260L1337,175Z" fill="#6e3846" stroke="#6e3846" stroke-width="1.51"/><path d="M-57,235L-132,361L14,358Z" fill="#af6861" stroke="#af6861" stroke-width="1.51"/><path d="M-98,603L-142,674L-67,677Z" fill="#945456" stroke="#945456" stroke-width="1.51"/><path d="M-196,174L-132,361L-57,235Z" fill="#b46c63" stroke="#b46c63" stroke-width="1.51"/><path d="M376,-166L144,-133L291,-109Z" fill="#bb7165" stroke="#bb7165" stroke-width="1.51"/><path d="M291,-109L144,-133L183,43Z" fill="#be7467" stroke="#be7467" stroke-width="1.51"/><path d="M144,-133L52,-44L183,43Z" fill="#c27768" stroke="#c27768" stroke-width="1.51"/><path d="M8,101L-115,105L-57,235Z" fill="#bd7366" stroke="#bd7366" stroke-width="1.51"/><path d="M-168,441L-142,674L-98,603Z" fill="#9a5859" stroke="#9a5859" stroke-width="1.51"/><path d="M-154,932L-32,1007L-38,855Z" fill="#80454e" stroke="#80454e" stroke-width="1.51"/><path d="M1378,956L1469,888L1363,797Z" fill="#401633" stroke="#401633" stroke-width="1.51"/><path d="M1485,1067L1469,888L1378,956Z" fill="#3d1432" stroke="#3d1432" stroke-width="1.51"/><path d="M1496,260L1456,109L1337,175Z" fill="#733b48" stroke="#733b48" stroke-width="1.51"/><path d="M1496,260L1557,192L1456,109Z" fill="#723b48" stroke="#723b48" stroke-width="1.51"/><path d="M1532,479L1534,281L1453,302Z" fill="#653243" stroke="#653243" stroke-width="1.51"/><path d="M-132,361L-168,441L-58,481Z" fill="#a6615d" stroke="#a6615d" stroke-width="1.51"/><path d="M1469,888L1523,811L1363,797Z" fill="#421734" stroke="#421734" stroke-width="1.51"/><path d="M-38,855L-32,1007L71,858Z" fill="#80454e" stroke="#80454e" stroke-width="1.51"/><path d="M131,978L-32,1007L214,1032Z" fill="#7b424c" stroke="#7b424c" stroke-width="1.51"/><path d="M-154,932L-38,855L-98,746Z" fill="#854950" stroke="#854950" stroke-width="1.51"/><path d="M144,-133L89,-130L52,-44Z" fill="#c47869" stroke="#c47869" stroke-width="1.51"/><path d="M52,-44L15,-63L8,101Z" fill="#c77b6a" stroke="#c77b6a" stroke-width="1.51"/><path d="M376,-166L89,-130L144,-133Z" fill="#be7467" stroke="#be7467" stroke-width="1.51"/><path d="M89,-130L15,-63L52,-44Z" fill="#c67a6a" stroke="#c67a6a" stroke-width="1.51"/><path d="M-132,361L-196,174L-168,441Z" fill="#ae6860" stroke="#ae6860" stroke-width="1.51"/><path d="M1441,11L1406,-36L1343,96Z" fill="#81464e" stroke="#81464e" stroke-width="1.51"/><path d="M1441,11L1343,96L1456,109Z" fill="#7c424c" stroke="#7c424c" stroke-width="1.51"/><path d="M1528,-25L1441,11L1456,109Z" fill="#7e444d" stroke="#7e444d" stroke-width="1.51"/><path d="M1523,811L1572,730L1438,731Z" fill="#471b36" stroke="#471b36" stroke-width="1.51"/><path d="M1581,149L1557,192L1534,281Z" fill="#703948" stroke="#703948" stroke-width="1.51"/><path d="M1469,888L1548,809L1523,811Z" fill="#411734" stroke="#411734" stroke-width="1.51"/><path d="M1548,809L1572,730L1523,811Z" fill="#451a35" stroke="#451a35" stroke-width="1.51"/><path d="M-128,-17L-115,105L8,101Z" fill="#c47869" stroke="#c47869" stroke-width="1.51"/><path d="M1534,281L1557,192L1496,260Z" fill="#6e3846" stroke="#6e3846" stroke-width="1.51"/><path d="M1619,552L1534,281L1532,479Z" fill="#5f2d40" stroke="#5f2d40" stroke-width="1.51"/><path d="M1572,730L1619,552L1452,563Z" fill="#52233b" stroke="#52233b" stroke-width="1.51"/><path d="M-165,982L-154,932L-142,674Z" fill="#83484f" stroke="#83484f" stroke-width="1.51"/><path d="M-142,674L-154,932L-98,746Z" fill="#894c52" stroke="#894c52" stroke-width="1.51"/><path d="M1442,-161L1386,-167L1406,-36Z" fill="#82474f" stroke="#82474f" stroke-width="1.51"/><path d="M1557,192L1581,149L1456,109Z" fill="#753d49" stroke="#753d49" stroke-width="1.51"/><path d="M1619,552L1581,149L1534,281Z" fill="#673344" stroke="#673344" stroke-width="1.51"/><path d="M-168,441L-165,982L-142,674Z" fill="#905155" stroke="#905155" stroke-width="1.51"/><path d="M-115,105L-196,174L-57,235Z" fill="#bb7165" stroke="#bb7165" stroke-width="1.51"/><path d="M-128,-17L-196,174L-115,105Z" fill="#c17668" stroke="#c17668" stroke-width="1.51"/><path d="M1469,888L1627,909L1548,809Z" fill="#3f1533" stroke="#3f1533" stroke-width="1.51"/><path d="M1548,809L1627,909L1572,730Z" fill="#431835" stroke="#431835" stroke-width="1.51"/><path d="M1572,730L1627,909L1619,552Z" fill="#491d37" stroke="#491d37" stroke-width="1.51"/><path d="M1303,1046L1485,1067L1378,956Z" fill="#3f1533" stroke="#3f1533" stroke-width="1.51"/><path d="M1225,1072L1485,1067L1303,1046Z" fill="#411734" stroke="#411734" stroke-width="1.51"/><path d="M1528,-25L1406,-36L1441,11Z" fill="#80454e" stroke="#80454e" stroke-width="1.51"/><path d="M1406,-36L1386,-167L1281,-69Z" fill="#844850" stroke="#844850" stroke-width="1.51"/><path d="M1281,-69L1386,-167L1103,-78Z" fill="#894c52" stroke="#894c52" stroke-width="1.51"/><path d="M1032,-129L1386,-167L813,-150Z" fill="#925355" stroke="#925355" stroke-width="1.51"/><path d="M813,-150L1386,-167L376,-166Z" fill="#9d5b5a" stroke="#9d5b5a" stroke-width="1.51"/><path d="M15,-63L-128,-17L8,101Z" fill="#c87b6b" stroke="#c87b6b" stroke-width="1.51"/><path d="M89,-130L-61,-95L15,-63Z" fill="#c87b6a" stroke="#c87b6a" stroke-width="1.51"/><path d="M-61,-95L-128,-17L15,-63Z" fill="#c97c6b" stroke="#c97c6b" stroke-width="1.51"/><path d="M-154,932L-165,982L-32,1007Z" fill="#80454e" stroke="#80454e" stroke-width="1.51"/><path d="M-196,174L-165,982L-168,441Z" fill="#9e5b5a" stroke="#9e5b5a" stroke-width="1.51"/><path d="M1581,149L1528,-25L1456,109Z" fill="#7a414c" stroke="#7a414c" stroke-width="1.51"/><path d="M1528,-25L1442,-161L1406,-36Z" fill="#80454e" stroke="#80454e" stroke-width="1.51"/><path d="M1581,1046L1627,909L1469,888Z" fill="#3d1432" stroke="#3d1432" stroke-width="1.51"/><path d="M-61,-95L-139,-83L-128,-17Z" fill="#c97c6b" stroke="#c97c6b" stroke-width="1.51"/><path d="M-128,-17L-139,-83L-196,174Z" fill="#c77a6a" stroke="#c77a6a" stroke-width="1.51"/><path d="M89,-130L-139,-83L-61,-95Z" fill="#c97c6b" stroke="#c97c6b" stroke-width="1.51"/><path d="M1485,1067L1581,1046L1469,888Z" fill="#3d1432" stroke="#3d1432" stroke-width="1.51"/><path d="M1528,-25L1572,-120L1442,-161Z" fill="#80454e" stroke="#80454e" stroke-width="1.51"/><path d="M1581,149L1572,-120L1528,-25Z" fill="#80454e" stroke="#80454e" stroke-width="1.51"/><path d="M1619,552L1572,-120L1581,149Z" fill="#713a48" stroke="#713a48" stroke-width="1.51"/></svg>